<svg xmlns="http://www.w3.org/2000/svg" viewBox="0 0 512 512">
    <path d="M500 232h-28.1C460.2 145.7 390.3 75.8 304 67.9V40c0-6.6-5.4-12-12-12h-72c-6.6 0-12 5.4-12 12v27.9C122.6 75.8 52.7 145.7 44.8 232H16c-6.6 0-12 5.4-12 12v24c0 6.6 5.4 12 12 12h28.1c7.9 86.3 77.8 156.2 164.1 164.1V472c0 6.6 5.4 12 12 12h72c6.6 0 12-5.4 12-12v-27.9c86.3-7.9 156.2-77.8 164.1-164.1H500c6.6 0 12-5.4 12-12v-24c0-6.6-5.4-12-12-12zM256 368c-61.9 0-112-50.1-112-112s50.1-112 112-112 112 50.1 112 112-50.1 112-112 112z"/>
</svg>
