<svg width="16" height="16" viewBox="0 0 16 16" fill="none" xmlns="http://www.w3.org/2000/svg">
<path d="M7.99892 0.479998C9.4972 0.47753 10.9617 0.924825 12.203 1.76399C13.0039 2.30512 13.6937 2.99485 14.2348 3.79582C15.2115 5.24245 15.6541 6.98394 15.4867 8.72135C15.3193 10.4588 14.5524 12.0837 13.3175 13.3173C12.632 14.0035 11.8203 14.5508 10.9271 14.9291C9.77478 15.4167 8.5189 15.6086 7.27352 15.4876C6.02815 15.3665 4.83273 14.9363 3.79582 14.236C2.58671 13.4196 1.64019 12.2702 1.07087 10.9269C0.583137 9.77462 0.391088 8.51872 0.512177 7.27333C0.633266 6.02795 1.06366 4.83257 1.76423 3.79582C2.57996 2.58665 3.72894 1.64008 5.07189 1.07087C5.99815 0.678805 6.99405 0.477829 7.99988 0.479998M7.99988 0C3.5815 0 0 3.58174 0 7.99988C0 12.418 3.5815 16 7.99988 16C12.4183 16 15.9998 12.4183 15.9998 7.99988C15.9998 3.5815 12.4171 0 7.99892 0L7.99988 0Z" fill="#32373C"/>
<path d="M1.33222 7.99965C1.33222 10.6396 2.86556 12.9196 5.08963 13.9996L1.90941 5.28767C1.52833 6.14098 1.33165 7.06511 1.33222 7.99965ZM12.4994 7.66365C12.4994 6.8395 12.2034 6.26926 11.9498 5.82526C11.6118 5.27591 11.295 4.81103 11.295 4.26167C11.295 3.64895 11.7597 3.07848 12.4144 3.07848C12.4442 3.07848 12.472 3.08208 12.5008 3.084C11.2731 1.95617 9.66603 1.33137 7.9989 1.33369C5.67091 1.33369 3.62084 2.52864 2.42877 4.33823C2.58525 4.34327 2.7326 4.34639 2.85788 4.34639C3.55388 4.34639 4.63387 4.26167 4.63387 4.26167C4.99387 4.24055 5.03563 4.76855 4.6766 4.81103C4.6766 4.81103 4.31516 4.85327 3.91364 4.87439L6.34195 12.096L7.8009 7.72053L6.76243 4.87487C6.40243 4.85375 6.06307 4.81151 6.06307 4.81151C5.70307 4.79039 5.74603 4.24103 6.10555 4.26215C6.10555 4.26215 7.20618 4.34687 7.86114 4.34687C8.55714 4.34687 9.63713 4.26215 9.63713 4.26215C9.99713 4.24103 10.0389 4.76903 9.67961 4.81151C9.67961 4.81151 9.31817 4.85375 8.91665 4.87487L11.326 12.041L12.0138 9.8618C12.3203 8.90877 12.4994 8.23389 12.4994 7.66341V7.66365ZM8.11602 8.58309L6.11539 14.3951C7.45852 14.7907 8.89208 14.7535 10.2129 14.2888C10.1943 14.2596 10.1782 14.2289 10.1649 14.1969L8.11602 8.58309ZM13.8491 4.80191C13.8794 5.02913 13.8944 5.25812 13.894 5.48735C13.894 6.16342 13.7673 6.92398 13.3869 7.87509L11.3507 13.762C13.3326 12.6067 14.6656 10.4594 14.6656 7.99989C14.6671 6.88207 14.3863 5.78197 13.8491 4.80167V4.80191Z" fill="#32373C"/>
</svg>
